{"title":"Star Parivaar Awards 2012 Main Event 24th March","uid":7130431,"size":590993704,"categoryP":"video","categoryS":"tv_shows","magnet":"?xt=urn:btih:599d22279e643237a680ae70a02ac32d2df2a1d5&amp;dn=Star+Parivaar+Awards+2012+Main+Event+24th+March&amp;tr=udp%3A%2F%2Ftracker.openbittorrent.com%3A80&amp;tr=udp%3A%2F%2Fopen.demonii.com%3A1337&amp;tr=udp%3A%2F%2Ftracker.coppersurfer.tk%3A6969&amp;tr=udp%3A%2F%2Fexodus.desync.com%3A6969","seeders":0,"leechers":1,"uploader":"arsenal_rocks","files":3,"time":1332690597,"description":"\n\nGeneral\nComplete name                            : Star Parivaar Awards 2012 Main Event 24th March.wmv\nFormat                                   : Windows Media\nFile size                                : 564 MiB\nDuration                                 : 2h 32mn\nOverall bit rate mode                    : Constant\nOverall bit rate                         : 516 Kbps\nMaximum Overall bit rate                 : 521 Kbps\nEncoded date                             : UTC 2012-03-24 15:32:46.390\n\nVideo\nID                                       : 2\nFormat                                   : VC-1\nFormat profile                           : MP@LL\nCodec ID                                 : WMV3\nCodec ID/Info                            : Windows Media Video 9\nCodec ID/Hint                            : WMV3\nDescription of the codec                 : Windows Media Video 9\nDuration                                 : 2h 32mn\nBit rate mode                            : Constant\nBit rate                                 : 448 Kbps\nWidth                                    : 320 pixels\nHeight                                   : 240 pixels\nDisplay aspect ratio                     : 4:3\nFrame rate                               : 25.000 fps\nBit depth                                : 8 bits\nScan type                                : Progressive\nCompression mode                         : Lossy\nBits/(Pixel*Frame)                       : 0.233\nStream size                              : 489 MiB (87%)\n\nAudio\nID                                       : 1\nFormat                                   : WMA\nFormat version                           : Version 2\nCodec ID                                 : 161\nCodec ID/Info                            : Windows Media Audio\nDescription of the codec                 : Windows Media Audio 9.2 -  64 kbps, 44 kHz, stereo (A/V) 1-pass CBR\nDuration                                 : 2h 32mn\nBit rate mode                            : Constant\nBit rate                                 : 64.0 Kbps\nChannel(s)                               : 2 channels\nSampling rate                            : 44.1 KHz\nBit depth                                : 16 bits\nStream size                              : 69.9 MiB (12%)\n\n\n &lt;a href=&quot;\nhttp://i.minus.com/jbuD51qCWWMud4.jpg&quot; rel=&quot;nofollow&quot; target=&quot;_NEW&quot;&gt;\nhttp://i.minus.com/jbuD51qCWWMud4.jpg&lt;/a&gt;\n\n &lt;a href=&quot;\nhttp://i.minus.com/jbdy4dIfjMkrDT.PNG&quot; rel=&quot;nofollow&quot; target=&quot;_NEW&quot;&gt;\nhttp://i.minus.com/jbdy4dIfjMkrDT.PNG&lt;/a&gt;","torrent":{"xt":"urn:btih:599d22279e643237a680ae70a02ac32d2df2a1d5","amp;dn":"Star+Parivaar+Awards+2012+Main+Event+24th+March","amp;tr":["udp%3A%2F%2Ftracker.openbittorrent.com%3A80","udp%3A%2F%2Fopen.demonii.com%3A1337","udp%3A%2F%2Ftracker.coppersurfer.tk%3A6969","udp%3A%2F%2Fexodus.desync.com%3A6969"],"infoHash":"599d22279e643237a680ae70a02ac32d2df2a1d5","infoHashBuffer":{"type":"Buffer","data":[89,157,34,39,158,100,50,55,166,128,174,112,160,42,195,45,45,242,161,213]},"announce":[],"urlList":[]}}